<?xml version="1.0" encoding="UTF-8"?>
<svg id="Capa_1" xmlns="http://www.w3.org/2000/svg" version="1.1" viewBox="0 0 310.42 310.42">
  <!-- Generator: Adobe Illustrator 29.7.1, SVG Export Plug-In . SVG Version: 2.1.1 Build 8)  -->
  <defs>
    <style>
      .st0 {
        fill: #d0efff;
      }
    </style>
  </defs>
  <path class="st0" d="M273.59,214.96c49.11-49.11,49.11-129.02,0-178.13-49.11-49.11-129.02-49.11-178.13,0-41.66,41.66-47.97,103.63-18.95,152.02,0,0,2.08,3.5-.73,6.31-16.07,16.06-64.26,64.26-64.26,64.26-12.79,12.79-15.84,30.67-4.49,42.02l1.95,1.95c11.34,11.35,29.23,8.3,42.02-4.49,0,0,48.1-48.1,64.13-64.13,2.95-2.95,6.45-.87,6.45-.87,48.39,29.03,110.35,22.72,152.02-18.95ZM118.71,191.71c-36.29-36.29-36.29-95.33,0-131.62,36.29-36.29,95.33-36.29,131.62,0,36.29,36.29,36.29,95.33,0,131.62-36.29,36.29-95.33,36.29-131.62,0Z"/>
  <path class="st0" d="M126.75,118.42c-1.69,0-3.41-.33-5.06-1.03-6.61-2.8-9.7-10.43-6.91-17.04,17.59-41.56,65.7-61.06,107.26-43.48,6.61,2.8,9.7,10.43,6.91,17.04-2.8,6.61-10.43,9.7-17.04,6.91-28.35-12-61.19,1.31-73.18,29.66-2.1,4.96-6.91,7.94-11.98,7.94Z"/>
</svg>