<?xml version="1.0" encoding="UTF-8"?>
<svg id="bold" xmlns="http://www.w3.org/2000/svg" version="1.1" viewBox="0 0 512 512">
  <!-- Generator: Adobe Illustrator 29.7.1, SVG Export Plug-In . SVG Version: 2.1.1 Build 8)  -->
  <defs>
    <style>
      .st0 {
        fill: #d0efff;
      }
    </style>
  </defs>
  <path class="st0" d="M474.67,512h-130.37c-9.37,0-18.33-3.5-25.24-9.81l-40.73-37.33c-7.7-7.06-12.1-17.09-12.1-27.52s4.42-20.46,12.1-27.52l40.73-37.33c6.91-6.31,15.87-9.81,25.24-9.81h130.37c20.59,0,37.33,16.75,37.33,37.33v74.67c0,20.59-16.75,37.33-37.33,37.33Z"/>
  <path class="st0" d="M0,192v128h384v-128H0Z"/>
  <path class="st0" d="M223.57,437.33c0-22.4,9.39-43.95,26.03-58.88l17.07-15.79H0v90.67c0,32.43,26.24,58.67,58.67,58.67h208l-17.07-15.79c-16.64-14.93-26.03-36.48-26.03-58.88Z"/>
  <path class="st0" d="M325.33,0H58.67C26.24,0,0,26.24,0,58.67v90.67h384V58.67c0-32.43-26.24-58.67-58.67-58.67ZM74.67,106.67c-17.71,0-32-14.29-32-32s14.29-32,32-32,32,14.29,32,32-14.29,32-32,32ZM181.33,106.67c-17.71,0-32-14.29-32-32s14.29-32,32-32,32,14.29,32,32-14.29,32-32,32ZM288,106.67c-17.71,0-32-14.29-32-32s14.29-32,32-32,32,14.29,32,32-14.29,32-32,32Z"/>
</svg>