<svg id="bold" enable-background="new 0 0 24 24" height="512" viewBox="0 0 24 24" width="512" xmlns="http://www.w3.org/2000/svg"><g><path d="m22.25 24h-6.111c-.439 0-.859-.164-1.183-.46l-1.909-1.75c-.361-.331-.567-.801-.567-1.29s.207-.959.567-1.29l1.909-1.75c.324-.296.744-.46 1.183-.46h6.111c.965 0 1.75.785 1.75 1.75v3.5c0 .965-.785 1.75-1.75 1.75z"/><path d="m0 9v6h18v-6z"/><path d="m10.48 20.5c0-1.05.44-2.06 1.22-2.76l.8-.74h-12.5v4.25c0 1.52 1.23 2.75 2.75 2.75h9.75l-.8-.74c-.78-.7-1.22-1.71-1.22-2.76z"/><path d="m15.25 0h-12.5c-1.52 0-2.75 1.23-2.75 2.75v4.25h18v-4.25c0-1.52-1.23-2.75-2.75-2.75zm-11.75 5c-.83 0-1.5-.67-1.5-1.5s.67-1.5 1.5-1.5 1.5.67 1.5 1.5-.67 1.5-1.5 1.5zm5 0c-.83 0-1.5-.67-1.5-1.5s.67-1.5 1.5-1.5 1.5.67 1.5 1.5-.67 1.5-1.5 1.5zm5 0c-.83 0-1.5-.67-1.5-1.5s.67-1.5 1.5-1.5 1.5.67 1.5 1.5-.67 1.5-1.5 1.5z"/></g></svg>