<?xml version="1.0" encoding="UTF-8"?>
<svg id="Layer_1" xmlns="http://www.w3.org/2000/svg" version="1.1" viewBox="0 0 512 512">
  <!-- Generator: Adobe Illustrator 29.7.1, SVG Export Plug-In . SVG Version: 2.1.1 Build 8)  -->
  <defs>
    <style>
      .st0 {
        fill: #d0efff;
      }
    </style>
  </defs>
  <path class="st0" d="M464.88,64.27H47.12C21.14,64.27,0,85.4,0,111.42s21.14,47.12,47.12,47.12h417.77c25.98,0,47.12-21.14,47.12-47.12s-21.14-47.15-47.12-47.15Z"/>
  <path class="st0" d="M464.88,208.87H47.12C21.14,208.87,0,230,0,256.02s21.14,47.12,47.12,47.12h417.77c25.98,0,47.12-21.14,47.12-47.12s-21.14-47.15-47.12-47.15h0Z"/>
  <path class="st0" d="M464.88,353.47H47.12C21.14,353.47,0,374.6,0,400.62s21.14,47.12,47.12,47.12h417.77c25.98,0,47.12-21.14,47.12-47.12s-21.14-47.15-47.12-47.15Z"/>
</svg>